<?xml version="1.0" encoding="UTF-8"?>
<svg xmlns="http://www.w3.org/2000/svg" width="48" height="48" viewBox="0 0 48 48" fill="none">
  <path fill-rule="evenodd" clip-rule="evenodd" d="M6.92147 8.37886C5.84438 8.37886 4.94892 9.26381 4.94892 10.3831V27.7064H42.6195V10.3831C42.6195 9.26381 41.724 8.37886 40.647 8.37886H6.92147ZM42.6195 30.5064H4.94892V34.2129C4.94892 35.3322 5.84438 36.2172 6.92147 36.2172H40.647C41.724 36.2172 42.6195 35.3322 42.6195 34.2129V30.5064ZM2.14892 29.0883C2.14884 29.0943 2.1488 29.1004 2.1488 29.1064C2.1488 29.1125 2.14884 29.1185 2.14892 29.1245V34.2129C2.14892 36.8538 4.27334 39.0172 6.92147 39.0172H22.599V43.0257H17.039C16.2658 43.0257 15.639 43.6526 15.639 44.4258C15.639 45.1989 16.2658 45.8258 17.039 45.8258H30.5292C31.3024 45.8258 31.9292 45.1989 31.9292 44.4258C31.9292 43.6526 31.3024 43.0257 30.5292 43.0257H25.399V39.0172H40.647C43.2951 39.0172 45.4195 36.8538 45.4195 34.2129V10.3831C45.4195 7.74217 43.2951 5.57886 40.647 5.57886H6.92147C4.27334 5.57886 2.14892 7.74217 2.14892 10.3831V29.0883Z" fill="#2E2D33"></path>
</svg>
