<?xml version="1.0" encoding="UTF-8"?>
<svg xmlns="http://www.w3.org/2000/svg" width="48" height="48" viewBox="0 0 48 48" fill="none">
  <path fill-rule="evenodd" clip-rule="evenodd" d="M31.3333 0.751349C31.8925 1.03497 32.1949 1.65576 32.0735 2.27087L29.2023 16.8256L40.4975 21.1199C40.9318 21.285 41.2559 21.6548 41.3626 22.107C41.4693 22.5592 41.3447 23.0349 41.03 23.3767L19.33 46.9481C18.9053 47.4094 18.2258 47.5321 17.6667 47.2485C17.1075 46.9648 16.8051 46.3441 16.9265 45.7289L19.7977 31.1742L8.50248 26.88C8.06819 26.7148 7.7441 26.345 7.63741 25.8928C7.53072 25.4406 7.65532 24.9649 7.97 24.6231L29.67 1.05169C30.0946 0.590427 30.7742 0.467726 31.3333 0.751349ZM11.4309 24.9978L21.8975 28.977C22.5355 29.2196 22.9056 29.8869 22.7735 30.5566L20.6351 41.3963L37.569 23.002L27.1025 19.0228C26.4645 18.7802 26.0944 18.1129 26.2265 17.4432L28.3649 6.60347L11.4309 24.9978Z" fill="#2E2D33"></path>
</svg>
