<?xml version="1.0" encoding="UTF-8"?>
<svg xmlns="http://www.w3.org/2000/svg" width="48" height="48" viewBox="0 0 48 48" fill="none">
  <path fill-rule="evenodd" clip-rule="evenodd" d="M24 17.9C20.6311 17.9 17.9 20.631 17.9 24C17.9 27.3689 20.6311 30.1 24 30.1C27.3689 30.1 30.1 27.3689 30.1 24C30.1 20.631 27.3689 17.9 24 17.9ZM15.1 24C15.1 19.0846 19.0847 15.1 24 15.1C28.9153 15.1 32.9 19.0846 32.9 24C32.9 28.9153 28.9153 32.9 24 32.9C19.0847 32.9 15.1 28.9153 15.1 24Z" fill="#2E2D33"></path>
  <path fill-rule="evenodd" clip-rule="evenodd" d="M15.75 8.14998C11.5526 8.14998 8.15001 11.5526 8.15001 15.75V32.25C8.15001 36.4473 11.5526 39.85 15.75 39.85H32.25C36.4474 39.85 39.85 36.4473 39.85 32.25V15.75C39.85 11.5526 36.4474 8.14998 32.25 8.14998H15.75ZM5.35001 15.75C5.35001 10.0062 10.0062 5.34998 15.75 5.34998H32.25C37.9938 5.34998 42.65 10.0062 42.65 15.75V32.25C42.65 37.9937 37.9938 42.65 32.25 42.65H15.75C10.0062 42.65 5.35001 37.9937 5.35001 32.25V15.75Z" fill="#2E2D33"></path>
  <path d="M33.75 16.5C34.9926 16.5 36 15.4926 36 14.25C36 13.0073 34.9926 12 33.75 12C32.5074 12 31.5 13.0073 31.5 14.25C31.5 15.4926 32.5074 16.5 33.75 16.5Z" fill="#2E2D33"></path>
</svg>
