<?xml version="1.0" encoding="UTF-8"?>
<svg xmlns="http://www.w3.org/2000/svg" width="48" height="48" viewBox="0 0 48 48" fill="none">
  <path fill-rule="evenodd" clip-rule="evenodd" d="M13.8488 44.691C13.8488 43.9681 14.4323 43.3821 15.152 43.3821H30.8491C31.5689 43.3821 32.1523 43.9681 32.1523 44.691C32.1523 45.414 31.5689 46 30.8491 46H15.152C14.4323 46 13.8488 45.414 13.8488 44.691Z" fill="#2E2D33"></path>
  <path fill-rule="evenodd" clip-rule="evenodd" d="M31.1368 7.17576C28.6442 5.44235 25.678 4.54945 22.6589 4.62201C14.8689 4.80399 8.57053 11.3853 8.6066 19.3213C8.61371 21.5246 9.11538 23.6987 10.073 25.6753C11.0307 27.6519 12.4189 29.3805 14.1318 30.7308L13.3271 31.7604L14.1383 30.7359C14.8561 31.3092 15.4365 32.0382 15.8372 32.8682C16.2379 33.6982 16.4489 34.6083 16.4551 35.5312L16.4552 35.5401L16.4552 36.7337C16.4552 36.8125 16.4862 36.8857 16.5375 36.9378C16.5884 36.9894 16.6549 37.0162 16.7216 37.0162H29.2793C29.346 37.0162 29.4125 36.9894 29.4635 36.9378C29.5148 36.8857 29.5458 36.8125 29.5458 36.7337L29.5458 35.5376C29.5476 34.6061 29.7594 33.6868 30.1656 32.85C30.571 32.0148 31.1597 31.2833 31.8875 30.7119C34.2637 28.8192 35.994 26.2148 36.8311 23.2663C37.6686 20.3164 37.5687 17.1738 36.5457 14.2848C35.5228 11.396 33.6296 8.9093 31.1368 7.17576ZM12.5189 32.7873C10.4959 31.1916 8.85836 29.1511 7.72936 26.8208C6.59971 24.4892 6.00856 21.9282 6.00017 19.3315V19.3315C5.95868 10.0015 13.3561 2.22118 22.5965 2.00484V2.00484C26.1687 1.91905 29.6761 2.97574 32.6205 5.02339C35.5649 7.07096 37.7966 10.0049 39.0015 13.4076C40.2063 16.8101 40.3238 20.5104 39.3376 23.9842C38.3514 27.4582 36.3108 30.5313 33.5029 32.7664L33.4951 32.7726C33.0794 33.0984 32.7416 33.5171 32.5084 33.9973C32.2754 34.4773 32.1534 35.0056 32.1523 35.5417V35.5417V36.7337C32.1523 37.499 31.8525 38.2354 31.3151 38.7802C30.7773 39.3255 30.0452 39.6341 29.2793 39.6341H16.7216C15.9557 39.6341 15.2237 39.3255 14.6859 38.7802C14.1485 38.2354 13.8487 37.499 13.8487 36.7337V35.5449C13.8445 35.0123 13.7224 34.4879 13.4919 34.0105C13.2614 33.533 12.9286 33.1152 12.5189 32.7873Z" fill="#2E2D33"></path>
  <path fill-rule="evenodd" clip-rule="evenodd" d="M23.3053 9.61701C23.4267 8.90445 24.1002 8.42564 24.8096 8.54757C26.9968 8.92346 29.0131 9.97806 30.581 11.5636C32.1488 13.1491 33.1911 15.1871 33.5661 17.3959C33.6871 18.1085 33.21 18.7847 32.5005 18.9063C31.791 19.0278 31.1177 18.5486 30.9967 17.836C30.7115 16.1563 29.9194 14.6095 28.7317 13.4085C27.5442 12.2076 26.02 11.4115 24.37 11.128C23.6606 11.0061 23.1839 10.3296 23.3053 9.61701Z" fill="#2E2D33"></path>
</svg>
