<?xml version="1.0" encoding="UTF-8"?>
<svg xmlns="http://www.w3.org/2000/svg" width="48" height="48" viewBox="0 0 48 48" fill="none">
  <path d="M45.4286 27.9547C45.4286 31.037 44.8221 33.6735 43.6741 35.5771C42.2526 37.9362 40.0389 39.1837 37.2857 39.1837C31.9401 39.1837 28.1441 32.1046 24.1263 24.6007C20.8699 18.5204 17.1792 11.6326 13.6684 11.6326C11.8737 11.6326 9.85331 13.5459 8.26339 16.7353C6.57217 20.2362 5.67392 24.067 5.63265 27.9547C5.63265 30.4802 6.08801 32.5695 6.94898 33.9968C7.80995 35.4241 9.04209 36.1224 10.7143 36.1224C13.6071 36.1224 16.6167 31.4273 19.1767 26.8335C19.3746 26.4783 19.7054 26.2163 20.0965 26.1051C20.4876 25.9938 20.9069 26.0425 21.2621 26.2404C21.6173 26.4383 21.8794 26.7692 21.9906 27.1603C22.1018 27.5514 22.0531 27.9707 21.8552 28.3259C18.9222 33.5797 15.4037 39.1837 10.7143 39.1837C7.95727 39.1837 5.73979 37.9362 4.32589 35.5771C3.17793 33.6639 2.57143 31.037 2.57143 27.9547C2.61653 23.5941 3.62393 19.2973 5.52168 15.3712C7.7028 10.986 10.5957 8.57141 13.6684 8.57141C19.014 8.57141 22.808 15.6505 26.8278 23.1543C30.0823 29.2347 33.773 36.1224 37.2857 36.1224C38.9579 36.1224 40.1901 35.4279 41.051 33.9968C41.912 32.5657 42.3673 30.4802 42.3673 27.9547C42.3267 24.0671 41.4291 20.2363 39.7385 16.7353C38.1582 13.5459 36.1282 11.6326 34.3316 11.6326C32.7321 11.6326 30.949 13.0638 28.8769 16.0102C28.7629 16.1787 28.6165 16.3227 28.4462 16.434C28.2759 16.5452 28.0852 16.6214 27.8851 16.6581C27.685 16.6947 27.4796 16.6912 27.2809 16.6475C27.0823 16.6039 26.8943 16.5211 26.7279 16.404C26.5616 16.2869 26.4203 16.1378 26.3123 15.9655C26.2042 15.7931 26.1316 15.601 26.0987 15.4002C26.0658 15.1995 26.0732 14.9942 26.1206 14.7964C26.1679 14.5986 26.2542 14.4122 26.3744 14.2481C28.0963 11.8106 30.7749 8.57141 34.3316 8.57141C37.4024 8.57141 40.2953 10.986 42.4764 15.3712C44.3748 19.2972 45.3829 23.594 45.4286 27.9547Z" fill="#2E2D33"></path>
</svg>
