<?xml version="1.0" encoding="UTF-8"?>
<svg xmlns="http://www.w3.org/2000/svg" width="48" height="48" viewBox="0 0 48 48" fill="none">
  <path fill-rule="evenodd" clip-rule="evenodd" d="M23.7841 5.25801C13.394 5.25801 4.9488 13.7636 4.9488 24.2835C4.9488 34.8034 13.394 43.3091 23.7841 43.3091C34.1742 43.3091 42.6194 34.8034 42.6194 24.2835C42.6194 13.7636 34.1742 5.25801 23.7841 5.25801ZM2.1488 24.2835C2.1488 12.242 11.8229 2.45801 23.7841 2.45801C35.7453 2.45801 45.4194 12.242 45.4194 24.2835C45.4194 36.3251 35.7453 46.1091 23.7841 46.1091C11.8229 46.1091 2.1488 36.3251 2.1488 24.2835Z" fill="#2E2D33"></path>
  <path fill-rule="evenodd" clip-rule="evenodd" d="M3.30896 17.4752C3.30896 16.702 3.93576 16.0752 4.70896 16.0752H42.8609C43.6341 16.0752 44.2609 16.702 44.2609 17.4752C44.2609 18.2484 43.6341 18.8752 42.8609 18.8752H4.70896C3.93576 18.8752 3.30896 18.2484 3.30896 17.4752Z" fill="#2E2D33"></path>
  <path fill-rule="evenodd" clip-rule="evenodd" d="M3.30896 31.0919C3.30896 30.3187 3.93576 29.6919 4.70896 29.6919H42.8609C43.6341 29.6919 44.2609 30.3187 44.2609 31.0919C44.2609 31.8651 43.6341 32.4919 42.8609 32.4919H4.70896C3.93576 32.4919 3.30896 31.8651 3.30896 31.0919Z" fill="#2E2D33"></path>
  <path fill-rule="evenodd" clip-rule="evenodd" d="M19.1118 10.779C17.6756 14.1641 16.7535 18.9379 16.7535 24.2841C16.7535 29.6302 17.6756 34.404 19.1118 37.7891C19.831 39.4844 20.6516 40.7661 21.4914 41.6033C22.3256 42.4348 23.0992 42.7564 23.7849 42.7564C24.4705 42.7564 25.2442 42.4348 26.0783 41.6033C26.9181 40.7661 27.7387 39.4844 28.4579 37.7891C29.8942 34.404 30.8162 29.6302 30.8162 24.2841C30.8162 18.9379 29.8942 14.1641 28.4579 10.779C27.7387 9.08377 26.9181 7.80206 26.0783 6.96487C25.2442 6.13329 24.4705 5.81172 23.7849 5.81172C23.0992 5.81172 22.3256 6.13329 21.4914 6.96487C20.6516 7.80206 19.831 9.08377 19.1118 10.779ZM19.5146 4.9819C20.6979 3.80229 22.1422 3.01172 23.7849 3.01172C25.4275 3.01172 26.8719 3.80229 28.0551 4.9819C29.2328 6.15591 30.229 7.78443 31.0355 9.68539C32.6509 13.4927 33.6162 18.655 33.6162 24.2841C33.6162 29.9131 32.6509 35.0754 31.0355 38.8827C30.229 40.7837 29.2328 42.4122 28.0551 43.5862C26.8719 44.7658 25.4275 45.5564 23.7849 45.5564C22.1422 45.5564 20.6979 44.7658 19.5146 43.5862C18.3369 42.4122 17.3407 40.7837 16.5342 38.8827C14.9188 35.0754 13.9535 29.9131 13.9535 24.2841C13.9535 18.655 14.9188 13.4927 16.5342 9.68539C17.3407 7.78443 18.3369 6.15591 19.5146 4.9819Z" fill="#2E2D33"></path>
</svg>
