<?xml version="1.0" encoding="UTF-8"?>
<svg xmlns="http://www.w3.org/2000/svg" width="522" height="282" viewBox="0 0 522 282" fill="none">
  <path d="M521.309 1V0.690567H521H440.775H440.466V1V281V281.309H440.775H521H521.309V281V1Z" fill="white" stroke="white" stroke-width="0.618866"></path>
  <path d="M365.827 0.949917L365.785 0.690567H365.522H249.473H249.205L249.166 0.955405L208.387 280.955L208.336 281.309H208.693H291.776H292.058L292.084 281.029L296.822 230.982H325.029L329.008 281.025L329.03 281.309H329.316H411.446H411.811L411.752 280.95L365.827 0.949917ZM295.923 180.728C297.94 156.332 302.882 118.162 310.75 66.213C314.725 111.493 318.7 149.665 322.676 180.728H295.923Z" fill="white" stroke="white" stroke-width="0.618866"></path>
  <path d="M1 0.690567H0.690567V1V281V281.309H1H81.2246H81.534V281V155.059C86.9036 155.076 91.2334 155.521 94.5325 156.389C97.9003 157.274 100.152 158.588 101.362 160.29L101.366 160.296C102.65 162.016 103.643 165.162 104.309 169.796C104.973 174.417 105.306 180.468 105.306 187.955V281V281.309H105.616H180.124H180.433V281V207.152C180.433 195.85 180.258 186.75 179.909 179.854C179.56 172.972 179.036 168.257 178.327 165.739C177.038 160.597 173.635 155.019 168.157 149.007C162.846 143.178 152.719 138.519 137.854 134.991C154.357 133.333 165.578 128.883 171.41 121.563C174.438 117.763 176.69 112.175 178.188 104.83C179.686 97.4809 180.433 88.3501 180.433 77.4422C180.433 53.553 176.176 36.1158 167.601 25.1958C159.171 14.184 148.18 7.34062 134.641 4.67422C121.267 2.0156 95.6397 0.690567 57.786 0.690567H1ZM100.086 53.2977L100.09 53.3011C103.524 55.9723 105.306 61.6578 105.306 70.5244V85.9166C105.306 92.0735 104.846 96.9593 103.934 100.585C103.02 104.22 101.665 106.529 99.9264 107.618C96.4886 109.735 90.3807 110.832 81.534 110.857V49.2161C90.6312 49.2467 96.7832 50.6332 100.086 53.2977Z" fill="white" stroke="white" stroke-width="0.618866"></path>
</svg>
