<?xml version="1.0" encoding="UTF-8"?>
<svg xmlns="http://www.w3.org/2000/svg" width="48" height="48" viewBox="0 0 48 48" fill="none">
  <path fill-rule="evenodd" clip-rule="evenodd" d="M40.3307 14.3609C40.7723 13.8805 41.4891 13.8796 41.9318 14.3588C43.2213 15.7551 44.2445 17.4137 44.9426 19.2397C45.6407 21.0656 46 23.0231 46 25C46 26.9769 45.6407 28.9344 44.9426 30.7603C44.2445 32.5863 43.2213 34.2449 41.9318 35.6412C41.4891 36.1204 40.7723 36.1195 40.3307 35.6391C39.8891 35.1588 39.8899 34.3809 40.3325 33.9016C41.4113 32.7336 42.2672 31.3461 42.8512 29.8187C43.4351 28.2912 43.7357 26.6537 43.7357 25C43.7357 23.3463 43.4351 21.7088 42.8512 20.1813C42.2672 18.6539 41.4113 17.2664 40.3325 16.0984C39.8899 15.6191 39.8891 14.8412 40.3307 14.3609Z" fill="#2E2D33"></path>
  <path fill-rule="evenodd" clip-rule="evenodd" d="M29.2864 6.12076C29.7231 6.32003 30 6.73396 30 7.18751V42.8125C30 43.266 29.7231 43.68 29.2864 43.8792C28.8498 44.0785 28.3296 44.0283 27.9459 43.7498L13.9724 33.6094H4.86364C4.10416 33.6094 3.37578 33.3279 2.83874 32.8268C2.3017 32.3257 2 31.6461 2 30.9375V19.0625C2 18.3539 2.3017 17.6743 2.83874 17.1732C3.37578 16.6721 4.10415 16.3906 4.86364 16.3906H13.9724L27.9459 6.25015C28.3296 5.9717 28.8498 5.92149 29.2864 6.12076ZM27.4545 9.61552L15.1905 18.5155C14.9671 18.6776 14.6921 18.7656 14.4091 18.7656H4.86364C4.77925 18.7656 4.69832 18.7969 4.63865 18.8526C4.57898 18.9083 4.54545 18.9838 4.54545 19.0625V30.9375C4.54545 31.0162 4.57898 31.0917 4.63865 31.1474C4.69832 31.2031 4.77925 31.2344 4.86364 31.2344H14.4091C14.6921 31.2344 14.9671 31.3224 15.1905 31.4845L27.4545 40.3845V9.61552Z" fill="#2E2D33"></path>
  <path fill-rule="evenodd" clip-rule="evenodd" d="M15 16C15.5523 16 16 16.5558 16 17.2414V32.7586C16 33.4442 15.5523 34 15 34C14.4477 34 14 33.4442 14 32.7586V17.2414C14 16.5558 14.4477 16 15 16Z" fill="#2E2D33"></path>
  <path fill-rule="evenodd" clip-rule="evenodd" d="M34.3364 20.3247C34.7861 19.8929 35.5167 19.8916 35.9682 20.3217C36.6122 20.9352 37.1232 21.6643 37.4718 22.4671C37.8205 23.2699 38 24.1307 38 25C38 25.8693 37.8205 26.7301 37.4718 27.5329C37.1232 28.3357 36.6122 29.0648 35.9682 29.6783C35.5167 30.1084 34.7861 30.1071 34.3364 29.6753C33.8866 29.2436 33.8881 28.5449 34.3395 28.1148C34.7683 27.7063 35.1085 27.2209 35.3407 26.6864C35.5728 26.1519 35.6923 25.5788 35.6923 25C35.6923 24.4212 35.5728 23.8481 35.3407 23.3136C35.1085 22.7791 34.7683 22.2937 34.3395 21.8852C33.8881 21.4551 33.8866 20.7564 34.3364 20.3247Z" fill="#2E2D33"></path>
</svg>
