<?xml version="1.0" encoding="UTF-8"?>
<svg xmlns="http://www.w3.org/2000/svg" width="48" height="48" viewBox="0 0 48 48" fill="none">
  <path fill-rule="evenodd" clip-rule="evenodd" d="M40.3498 5.52055C40.8395 5.33071 41.3715 5.27741 41.8891 5.36635C42.4068 5.45528 42.8905 5.68311 43.2887 6.02552C43.687 6.36793 43.9847 6.81205 44.1503 7.31048C44.3158 7.80891 44.3428 8.34293 44.2286 8.85554L44.2268 8.86338L37.1768 39.6509C37.0642 40.1411 36.8259 40.5944 36.4856 40.9648C36.1453 41.3352 35.7145 41.6107 35.2355 41.7643C34.7565 41.9179 34.2458 41.9442 33.7536 41.8407C33.2626 41.7375 32.8067 41.5087 32.4306 41.1766L32.4279 41.1741L15.8564 26.5934L6.23031 24.661L6.22454 24.6598C3.43617 24.0879 3.00988 20.1841 5.73158 19.1165V19.1165L40.3441 5.52278L40.3498 5.52055ZM41.3619 8.13123V8.13123L6.75514 21.7227C6.72583 21.7342 6.71238 21.7454 6.71238 21.7454L6.70922 21.7491C6.70637 21.7541 6.69632 21.7775 6.69998 21.8172C6.70363 21.8569 6.71819 21.8818 6.72578 21.8908C6.72876 21.8944 6.73165 21.897 6.73629 21.8997C6.74041 21.9022 6.75456 21.9101 6.78541 21.9166V21.9166L16.7752 23.922C17.016 23.9704 17.24 24.0813 17.4244 24.2436L34.2839 39.0776C34.2968 39.0891 34.3126 39.0971 34.3296 39.1006C34.3465 39.1042 34.3642 39.1033 34.3807 39.098C34.3972 39.0927 34.412 39.0832 34.4238 39.0704C34.4354 39.0578 34.4436 39.0423 34.4475 39.0256V39.0256L41.4957 8.24622V8.24622C41.4992 8.22905 41.4985 8.2096 41.493 8.19295C41.4873 8.17576 41.477 8.16045 41.4633 8.14864C41.4495 8.13683 41.4328 8.12898 41.415 8.12591C41.3975 8.12291 41.3785 8.12504 41.3619 8.13123Z" fill="#2E2D33"></path>
  <path fill-rule="evenodd" clip-rule="evenodd" d="M43.1537 6.04303C43.6064 6.66983 43.4653 7.54496 42.8385 7.99767L17.3197 26.4289C16.6929 26.8816 15.8178 26.7405 15.3651 26.1137C14.9124 25.4869 15.0535 24.6118 15.6803 24.1591L41.199 5.72782C41.8258 5.2751 42.701 5.41622 43.1537 6.04303Z" fill="#2E2D33"></path>
  <path fill-rule="evenodd" clip-rule="evenodd" d="M16.5 23.894C17.2732 23.894 17.9 24.5208 17.9 25.294V37.4984C17.9001 37.518 17.906 37.5372 17.917 37.5536C17.9281 37.57 17.9438 37.5828 17.9622 37.5903C17.9805 37.5978 18.0007 37.5997 18.0201 37.5957C18.0395 37.5917 18.0573 37.582 18.0712 37.5679L18.0788 37.5603L23.9288 31.7103C24.4755 31.1636 25.362 31.1636 25.9087 31.7103C26.4554 32.257 26.4554 33.1435 25.9087 33.6902L20.0619 39.537C19.659 39.9443 19.1445 40.2232 18.5833 40.3385C18.02 40.4541 17.435 40.3997 16.9027 40.1821C16.3704 39.9646 15.9148 39.5936 15.5939 39.1165C15.2729 38.6394 15.101 38.0776 15.1 37.5026L15.1 25.294C15.1 24.5208 15.7268 23.894 16.5 23.894Z" fill="#2E2D33"></path>
</svg>
