<?xml version="1.0" encoding="UTF-8"?>
<svg xmlns="http://www.w3.org/2000/svg" width="48" height="48" viewBox="0 0 48 48" fill="none">
  <path fill-rule="evenodd" clip-rule="evenodd" d="M23.7851 4.6916C13.3949 4.6916 4.94978 13.1972 4.94978 23.7171C4.94978 34.237 13.3949 42.7427 23.7851 42.7427C34.1752 42.7427 42.6204 34.237 42.6204 23.7171C42.6204 13.1972 34.1752 4.6916 23.7851 4.6916ZM2.14978 23.7171C2.14978 11.6756 11.8239 1.8916 23.7851 1.8916C35.7462 1.8916 45.4204 11.6756 45.4204 23.7171C45.4204 35.7587 35.7462 45.5427 23.7851 45.5427C11.8239 45.5427 2.14978 35.7587 2.14978 23.7171Z" fill="#2E2D33"></path>
  <path fill-rule="evenodd" clip-rule="evenodd" d="M23.7851 10.4019C24.5583 10.4019 25.1851 11.0287 25.1851 11.8019V22.3167H35.5891C36.3623 22.3167 36.9891 22.9436 36.9891 23.7167C36.9891 24.4899 36.3623 25.1167 35.5891 25.1167H23.7851C23.0119 25.1167 22.3851 24.4899 22.3851 23.7167V11.8019C22.3851 11.0287 23.0119 10.4019 23.7851 10.4019Z" fill="#2E2D33"></path>
</svg>
