<?xml version="1.0" encoding="UTF-8"?>
<svg xmlns="http://www.w3.org/2000/svg" width="48" height="48" viewBox="0 0 48 48" fill="none">
  <path d="M15.9295 11.4539C15.5578 11.3987 15.1788 11.475 14.8556 11.6703H14.8276C14.0776 12.1194 13.4016 12.6849 12.8257 13.3505C12.3457 13.916 12.0857 14.4876 12.0177 15.0388C11.9777 15.3654 12.0057 15.6962 12.0997 16.0085L12.1357 16.0289C12.6757 17.6478 13.3796 19.2055 14.2396 20.6713C15.3484 22.7302 16.713 24.6343 18.2994 26.3365L18.3474 26.4059L18.4234 26.4631L18.4694 26.5182L18.5254 26.5672C20.1988 28.1915 22.0685 29.591 24.0891 30.7319C26.399 32.016 27.801 32.6223 28.6429 32.8755V32.8877C28.8889 32.9653 29.1129 33 29.3389 33C30.056 32.9459 30.7347 32.6484 31.2668 32.1548C31.9168 31.5669 32.4668 30.8748 32.8947 30.1051V30.0908C33.2967 29.3151 33.1607 28.5842 32.5808 28.0881C31.4158 27.0491 30.1561 26.1262 28.8189 25.3321C27.923 24.836 27.013 25.1361 26.645 25.6383L25.8591 26.6509C25.4551 27.1531 24.7231 27.0837 24.7231 27.0837L24.7031 27.096C19.2414 25.673 17.7834 20.0282 17.7834 20.0282C17.7834 20.0282 17.7154 19.2606 18.2214 18.8687L19.2054 18.0602C19.6773 17.6683 20.0053 16.7414 19.4994 15.8268C18.7266 14.4606 17.8243 13.175 16.8055 11.9888C16.5833 11.7096 16.2716 11.5194 15.9255 11.4519L15.9295 11.4539ZM25.1591 9C24.8939 9 24.6396 9.10754 24.452 9.29897C24.2645 9.4904 24.1591 9.75003 24.1591 10.0208C24.1591 10.2915 24.2645 10.5511 24.452 10.7425C24.6396 10.934 24.8939 11.0415 25.1591 11.0415C27.687 11.0415 29.7869 11.8847 31.4488 13.5015C32.3028 14.3855 32.9687 15.4328 33.4047 16.5801C33.8427 17.7295 34.0427 18.9564 33.9907 20.1854C33.9796 20.4562 34.0742 20.7203 34.2539 20.9198C34.4335 21.1192 34.6835 21.2377 34.9487 21.2491C35.2139 21.2604 35.4726 21.1638 35.668 20.9804C35.8634 20.797 35.9795 20.5419 35.9906 20.2712C36.0526 18.7594 35.8068 17.2509 35.2686 15.8411C34.7281 14.4246 33.9086 13.1363 32.8608 12.0561L32.8407 12.0357C30.7788 10.0248 28.171 9 25.1591 9Z" fill="#2E2D33"></path>
  <path d="M25.0553 13.0019C24.7754 13.0019 24.507 13.0993 24.3091 13.2728C24.1112 13.4463 24 13.6816 24 13.927C24 14.1724 24.1112 14.4077 24.3091 14.5812C24.507 14.7547 24.7754 14.8521 25.0553 14.8521H25.0912C27.016 14.9724 28.4175 15.5349 29.3989 16.4582C30.4056 17.4093 30.927 18.5916 30.8869 20.0533C30.8804 20.2987 30.9854 20.5363 31.1788 20.7137C31.3721 20.8912 31.638 20.9941 31.9179 20.9998C32.1978 21.0054 32.4687 20.9133 32.6712 20.7438C32.8737 20.5743 32.991 20.3412 32.9975 20.0959C33.0481 18.1771 32.3432 16.5211 30.946 15.2V15.1963C29.5171 13.853 27.5563 13.1425 25.1967 13.0037L25.1608 13L25.0553 13.0019Z" fill="#2E2D33"></path>
  <path d="M25.2256 16.0036C25.0749 15.9926 24.923 16.0069 24.779 16.0456C24.635 16.0843 24.5019 16.1466 24.3877 16.2289C24.2734 16.3112 24.1803 16.4117 24.114 16.5244C24.0477 16.6371 24.0094 16.7598 24.0015 16.8851C23.9937 17.0103 24.0163 17.1356 24.0682 17.2535C24.12 17.3713 24.2 17.4793 24.3033 17.571C24.4066 17.6626 24.5312 17.7361 24.6695 17.787C24.8078 17.8379 24.9571 17.8652 25.1085 17.8672C26.0503 17.9083 26.6519 18.1436 27.0305 18.4591C27.4113 18.7766 27.6952 19.2864 27.747 20.0837C27.7498 20.209 27.783 20.3325 27.8447 20.447C27.9063 20.5614 27.9951 20.6644 28.1058 20.7498C28.2165 20.8351 28.3468 20.9012 28.4889 20.944C28.6311 20.9867 28.7821 21.0053 28.9331 20.9987C29.0841 20.992 29.232 20.9603 29.3679 20.9053C29.5037 20.8503 29.6249 20.7732 29.724 20.6785C29.8232 20.5839 29.8983 20.4737 29.945 20.3545C29.9917 20.2353 30.0089 20.1096 29.9957 19.9847C29.9236 18.8643 29.5 17.8747 28.6325 17.1464C27.7605 16.4182 26.5731 16.0634 25.2256 16.0036Z" fill="#2E2D33"></path>
  <path fill-rule="evenodd" clip-rule="evenodd" d="M14.4851 4.06828C20.7511 2.64391 27.249 2.64391 33.515 4.06828L34.1825 4.21847C36.0143 4.63489 37.6966 5.5596 39.0426 6.88986C40.3885 8.22012 41.3455 9.90382 41.8071 11.7539C43.3976 18.1277 43.3976 24.8045 41.8071 31.1782C41.3455 33.0283 40.3885 34.712 39.0426 36.0423C37.6966 37.3725 36.0143 38.2972 34.1825 38.7137L33.513 38.8638C29.5885 39.7563 25.5615 40.0926 21.5465 39.8631L16.3223 44.617C16.1253 44.7964 15.8847 44.9187 15.6254 44.9711C15.3661 45.0236 15.0977 45.0043 14.8483 44.9153C14.5988 44.8263 14.3774 44.6709 14.2072 44.4652C14.037 44.2595 13.9242 44.0111 13.8805 43.746L13.0161 38.4954C11.3584 37.9709 9.86071 37.0228 8.66614 35.7417C7.47157 34.4606 6.62004 32.8894 6.19294 31.1782C4.60235 24.8045 4.60235 18.1277 6.19294 11.7539C6.65454 9.90382 7.61151 8.22012 8.9575 6.88986C10.3035 5.5596 11.9858 4.63489 13.8175 4.21847L14.4851 4.06828ZM32.8711 6.99795C27.0291 5.6699 20.9709 5.6699 15.129 6.99795L14.4595 7.15014C13.1612 7.44582 11.969 8.10164 11.0152 9.04478C10.0613 9.98791 9.38319 11.1814 9.05609 12.4928C7.58654 18.3817 7.58654 24.5505 9.05609 30.4393C9.38334 31.7509 10.0618 32.9447 11.016 33.8878C11.9702 34.831 13.1628 35.4866 14.4614 35.782L14.6387 35.822C14.9254 35.8872 15.1864 36.0379 15.3885 36.2548C15.5905 36.4717 15.7243 36.7449 15.7729 37.0396L16.3518 40.56L20.0381 37.2058C20.1853 37.0714 20.3575 36.9685 20.5446 36.9032C20.7317 36.8378 20.9297 36.8113 21.127 36.8253C25.0635 37.1093 29.0196 36.8091 32.8711 35.9342L33.5386 35.782C34.8372 35.4866 36.0299 34.831 36.9841 33.8878C37.9383 32.9447 38.6167 31.7509 38.944 30.4393C40.413 24.5519 40.413 18.3822 38.944 12.4928C38.6167 11.1812 37.9383 9.98748 36.9841 9.04432C36.0299 8.10117 34.8372 7.44549 33.5386 7.15014L32.8711 6.99795Z" fill="#2E2D33"></path>
</svg>
