<?xml version="1.0" encoding="UTF-8"?>
<svg xmlns="http://www.w3.org/2000/svg" width="48" height="48" viewBox="0 0 48 48" fill="none">
  <path fill-rule="evenodd" clip-rule="evenodd" d="M25.1008 6.43446C20.822 6.16631 16.5924 7.46919 13.2061 10.0985C9.81979 12.7279 7.50965 16.5028 6.70938 20.7147C5.90911 24.9266 6.67374 29.2858 8.85972 32.9738C9.05538 33.3039 9.10696 33.6999 9.00243 34.0691L7.13679 40.6584C7.12847 40.6868 7.1279 40.7169 7.13525 40.7456C7.14259 40.7744 7.15752 40.8006 7.17847 40.8215C7.19942 40.8424 7.22562 40.8574 7.25433 40.8647C7.28305 40.8721 7.3132 40.8716 7.34163 40.8632L7.35322 40.8599L13.9309 38.9975C14.3001 38.893 14.696 38.9446 15.0261 39.1403C18.7142 41.3262 23.0734 42.0909 27.2853 41.2906C31.4972 40.4903 35.2721 38.1802 37.9015 34.7939C40.5308 31.4076 41.8337 27.178 41.5655 22.8991C41.2974 18.6203 39.4766 14.5864 36.4451 11.5549C33.4135 8.52337 29.3797 6.70262 25.1008 6.43446ZM11.4889 7.88693C15.4139 4.83929 20.3164 3.32913 25.276 3.63994C30.2356 3.95076 34.9111 6.06118 38.425 9.57501C41.9388 13.0888 44.0492 17.7644 44.36 22.724C44.6709 27.6836 43.1607 32.5861 40.113 36.5111C37.0654 40.4361 32.6899 43.1138 27.8079 44.0414C23.1259 44.931 18.2869 44.1522 14.1275 41.8519L8.12763 43.5507C8.12535 43.5513 8.12306 43.552 8.12078 43.5527C7.61224 43.7001 7.07346 43.7086 6.56044 43.5774C6.04511 43.4456 5.57471 43.1775 5.19857 42.8014C4.82243 42.4253 4.55441 41.9549 4.42259 41.4395C4.29134 40.9265 4.29992 40.3876 4.44737 39.8791C4.44801 39.8768 4.44867 39.8746 4.44932 39.8723L6.14804 33.8724C3.84774 29.7131 3.069 24.8741 3.9586 20.192C4.88618 15.3101 7.56384 10.9346 11.4889 7.88693Z" fill="#2E2D33"></path>
  <path d="M28.575 34.9999C26.5282 35.0051 24.5006 34.6057 22.6087 33.8248C20.7167 33.0439 18.9977 31.8969 17.5504 30.4496C16.1031 29.0023 14.9561 27.2833 14.1752 25.3913C13.3943 23.4994 12.9949 21.4718 13.0001 19.425C13.0052 17.9844 13.5811 16.6046 14.6015 15.5878C15.622 14.5709 17.0039 14 18.4445 14C18.6822 13.9981 18.9159 14.0603 19.1213 14.1801C19.3266 14.2999 19.4958 14.4727 19.6111 14.6806L21.8861 18.6472C22.0214 18.8884 22.0908 19.1609 22.0874 19.4373C22.084 19.7138 22.0079 19.9845 21.8667 20.2222L20.0389 23.275C20.9751 25.3577 22.6423 27.0249 24.725 27.9611L27.7778 26.1333C28.0155 25.9921 28.2862 25.916 28.5627 25.9125C28.8391 25.9091 29.1116 25.9786 29.3528 26.1139L33.3194 28.3888C33.5272 28.5042 33.7001 28.6734 33.8199 28.8787C33.9397 29.084 34.0019 29.3178 34 29.5555C33.9949 30.9945 33.4223 32.3735 32.4066 33.3928C31.3908 34.4122 30.014 34.9897 28.575 34.9999Z" fill="#2E2D33"></path>
</svg>
