<svg width="103" height="12" viewBox="0 0 103 12" fill="none" xmlns="http://www.w3.org/2000/svg">
<mask id="mask0_488_1009" style="mask-type:alpha" maskUnits="userSpaceOnUse" x="0" y="0" width="103" height="12">
<rect y="12" width="12" height="103" transform="rotate(-90 0 12)" fill="#D9D9D9"/>
</mask>
<g mask="url(#mask0_488_1009)">
<rect width="122.348" height="4.73727" transform="matrix(0.272363 -0.962195 0.969306 0.245856 -16.5804 64.2236)" fill="white" fill-opacity="0.2"/>
<rect width="122.348" height="4.73727" transform="matrix(0.272363 -0.962195 0.969306 0.245856 -8.65741 64.2236)" fill="white" fill-opacity="0.2"/>
<rect width="122.348" height="4.73727" transform="matrix(0.272363 -0.962195 0.969306 0.245856 -0.734314 64.2236)" fill="white" fill-opacity="0.2"/>
<rect width="122.348" height="4.73727" transform="matrix(0.272363 -0.962195 0.969306 0.245856 7.18872 64.2236)" fill="white" fill-opacity="0.2"/>
<rect width="122.348" height="4.73727" transform="matrix(0.272363 -0.962195 0.969306 0.245856 15.1118 64.2236)" fill="white" fill-opacity="0.2"/>
<rect width="122.348" height="4.73727" transform="matrix(0.272363 -0.962195 0.969306 0.245856 23.0349 64.2236)" fill="white" fill-opacity="0.2"/>
<rect width="122.348" height="4.73727" transform="matrix(0.272363 -0.962195 0.969306 0.245856 30.9579 64.2236)" fill="white" fill-opacity="0.2"/>
<rect width="122.348" height="4.73727" transform="matrix(0.272363 -0.962195 0.969306 0.245856 38.881 64.2236)" fill="white" fill-opacity="0.2"/>
<rect width="122.348" height="4.73727" transform="matrix(0.272363 -0.962195 0.969306 0.245856 46.8041 64.2236)" fill="white" fill-opacity="0.2"/>
<rect width="122.348" height="4.73727" transform="matrix(0.272363 -0.962195 0.969306 0.245856 54.6935 64.2236)" fill="white" fill-opacity="0.2"/>
<rect width="122.348" height="4.73727" transform="matrix(0.272363 -0.962195 0.969306 0.245856 62.5829 64.2236)" fill="white" fill-opacity="0.2"/>
<rect width="122.348" height="4.73727" transform="matrix(0.272363 -0.962195 0.969306 0.245856 70.4722 64.2236)" fill="white" fill-opacity="0.2"/>
<rect width="122.348" height="4.73727" transform="matrix(0.272363 -0.962195 0.969306 0.245856 78.3616 64.2236)" fill="white" fill-opacity="0.2"/>
<rect width="122.348" height="4.73727" transform="matrix(0.272363 -0.962195 0.969306 0.245856 86.4196 64.2236)" fill="white" fill-opacity="0.2"/>
</g>
</svg>