<svg width="24" height="24" viewBox="0 0 24 24" fill="none" xmlns="http://www.w3.org/2000/svg">
<path fill-rule="evenodd" clip-rule="evenodd" d="M11.9998 2.6998C6.86356 2.6998 2.6998 6.86356 2.6998 11.9998C2.6998 17.1361 6.86356 21.2998 11.9998 21.2998C17.1361 21.2998 21.2998 17.1361 21.2998 11.9998C21.2998 6.86356 17.1361 2.6998 11.9998 2.6998ZM1.2998 11.9998C1.2998 6.09036 6.09036 1.2998 11.9998 1.2998C17.9093 1.2998 22.6998 6.09036 22.6998 11.9998C22.6998 17.9093 17.9093 22.6998 11.9998 22.6998C6.09036 22.6998 1.2998 17.9093 1.2998 11.9998Z" fill="white"/>
<path fill-rule="evenodd" clip-rule="evenodd" d="M9.00479 9.00481C9.27816 8.73144 9.72137 8.73144 9.99474 9.00481L11.9998 11.0098L14.0048 9.00483C14.2782 8.73146 14.7214 8.73146 14.9947 9.00483C15.2681 9.2782 15.2681 9.72141 14.9947 9.99478L12.9897 11.9998L14.9947 14.0048C15.2681 14.2782 15.2681 14.7214 14.9947 14.9947C14.7213 15.2681 14.2781 15.2681 14.0048 14.9947L11.9998 12.9897L9.99476 14.9948C9.72139 15.2681 9.27818 15.2681 9.00481 14.9948C8.73144 14.7214 8.73144 14.2782 9.00481 14.0048L11.0098 11.9998L9.00479 9.99476C8.73142 9.72139 8.73142 9.27818 9.00479 9.00481Z" fill="white"/>
</svg>
