<svg width="12" height="64" viewBox="0 0 12 64" fill="none" xmlns="http://www.w3.org/2000/svg">
<mask id="mask0_315_18363" style="mask-type:alpha" maskUnits="userSpaceOnUse" x="0" y="0" width="12" height="64">
<rect width="12" height="64" fill="#D9D9D9"/>
</mask>
<g mask="url(#mask0_315_18363)">
<rect width="122.348" height="4.73727" transform="matrix(0.962195 0.272363 -0.245856 0.969306 -52.226 -16)" fill="white" fill-opacity="0.2"/>
<rect width="122.348" height="4.73727" transform="matrix(0.962195 0.272363 -0.245856 0.969306 -52.226 -8.08496)" fill="white" fill-opacity="0.2"/>
<rect width="122.348" height="4.73727" transform="matrix(0.962195 0.272363 -0.245856 0.969306 -52.226 -0.17041)" fill="white" fill-opacity="0.2"/>
<rect width="122.348" height="4.73727" transform="matrix(0.962195 0.272363 -0.245856 0.969306 -52.226 7.74463)" fill="white" fill-opacity="0.2"/>
<rect width="122.348" height="4.73727" transform="matrix(0.962195 0.272363 -0.245856 0.969306 -52.226 15.6592)" fill="white" fill-opacity="0.2"/>
<rect width="122.348" height="4.73727" transform="matrix(0.962195 0.272363 -0.245856 0.969306 -52.226 23.5742)" fill="white" fill-opacity="0.2"/>
<rect width="122.348" height="4.73727" transform="matrix(0.962195 0.272363 -0.245856 0.969306 -52.226 31.4888)" fill="white" fill-opacity="0.2"/>
<rect width="122.348" height="4.73727" transform="matrix(0.962195 0.272363 -0.245856 0.969306 -52.226 39.4038)" fill="white" fill-opacity="0.2"/>
<rect width="122.348" height="4.73727" transform="matrix(0.962195 0.272363 -0.245856 0.969306 -52.226 47.3184)" fill="white" fill-opacity="0.2"/>
<rect width="122.348" height="4.73727" transform="matrix(0.962195 0.272363 -0.245856 0.969306 -52.226 55.2334)" fill="white" fill-opacity="0.2"/>
<rect width="122.348" height="4.73727" transform="matrix(0.962195 0.272363 -0.245856 0.969306 -52.226 63.1479)" fill="white" fill-opacity="0.2"/>
</g>
</svg>