<svg width="24" height="24" viewBox="0 0 24 24" fill="none" xmlns="http://www.w3.org/2000/svg">
<path fill-rule="evenodd" clip-rule="evenodd" d="M20.6998 6.9998C20.6998 7.3864 20.3864 7.6998 19.9998 7.6998H3.99981C3.6132 7.6998 3.2998 7.3864 3.2998 6.9998C3.2998 6.61321 3.6132 6.2998 3.99981 6.2998H19.9998C20.3864 6.2998 20.6998 6.61321 20.6998 6.9998Z" fill="white"/>
<path fill-rule="evenodd" clip-rule="evenodd" d="M20.6998 11.9998C20.6998 12.3864 20.3864 12.6998 19.9998 12.6998H3.99981C3.6132 12.6998 3.2998 12.3864 3.2998 11.9998C3.2998 11.6132 3.6132 11.2998 3.99981 11.2998H19.9998C20.3864 11.2998 20.6998 11.6132 20.6998 11.9998Z" fill="white"/>
<path fill-rule="evenodd" clip-rule="evenodd" d="M20.6998 16.9998C20.6998 17.3864 20.3864 17.6998 19.9998 17.6998H3.99981C3.6132 17.6998 3.2998 17.3864 3.2998 16.9998C3.2998 16.6132 3.6132 16.2998 3.99981 16.2998H19.9998C20.3864 16.2998 20.6998 16.6132 20.6998 16.9998Z" fill="white"/>
</svg>
